<?xml version="1.0" encoding="UTF-8"?>
<svg width="16px" height="16px" viewBox="0 0 16 16" version="1.1" xmlns="http://www.w3.org/2000/svg" xmlns:xlink="http://www.w3.org/1999/xlink">
    <!-- Generator: Sketch 52.4 (67378) - http://www.bohemiancoding.com/sketch -->
    <title>管理</title>
    <desc>Created with Sketch.</desc>
    <g id="页面-1" stroke="none" stroke-width="1" fill="none" fill-rule="evenodd">
        <g id="切图" transform="translate(-38.000000, -64.000000)">
            <g id="管理" transform="translate(38.000000, 64.000000)">
                <g id="分组">
                    <rect id="矩形" fill="#000000" opacity="0" x="0" y="0" width="16" height="16"></rect>
                    <path d="M9.832,5.488 L6.136,5.488 C5.888,5.488 5.696,5.288 5.696,5.048 L5.696,1.352 C5.696,1.104 5.896,0.912 6.136,0.912 L9.832,0.912 C10.08,0.912 10.272,1.112 10.272,1.352 L10.272,5.04 C10.272,5.288 10.072,5.488 9.832,5.488 Z M6.576,4.6 L9.384,4.6 L9.384,1.792 L6.576,1.792 L6.576,4.6 Z M9.832,15.096 L6.136,15.096 C5.888,15.096 5.696,14.896 5.696,14.656 L5.696,10.96 C5.696,10.712 5.896,10.52 6.136,10.52 L9.832,10.52 C10.08,10.52 10.272,10.72 10.272,10.96 L10.272,14.656 C10.272,14.896 10.072,15.096 9.832,15.096 Z M6.576,14.208 L9.384,14.208 L9.384,11.4 L6.576,11.4 L6.576,14.208 Z M4.136,15.096 L0.44,15.096 C0.192,15.096 0,14.896 0,14.656 L0,10.96 C0,10.712 0.2,10.52 0.44,10.52 L4.136,10.52 C4.384,10.52 4.576,10.72 4.576,10.96 L4.576,14.656 C4.584,14.896 4.384,15.096 4.136,15.096 Z M0.888,14.208 L3.696,14.208 L3.696,11.4 L0.888,11.4 L0.888,14.208 Z M15.56,15.096 L11.864,15.096 C11.616,15.096 11.424,14.896 11.424,14.656 L11.424,10.96 C11.424,10.712 11.624,10.52 11.864,10.52 L15.56,10.52 C15.808,10.52 16,10.72 16,10.96 L16,14.656 C16,14.896 15.8,15.096 15.56,15.096 Z M12.304,14.208 L15.112,14.208 L15.112,11.4 L12.304,11.4 L12.304,14.208 Z" id="形状" fill="#FFFFFF" fill-rule="nonzero"></path>
                    <path d="M13.712,11.4 C13.464,11.4 13.272,11.2 13.272,10.96 L13.272,8.448 L2.736,8.448 L2.736,10.96 C2.736,11.208 2.536,11.4 2.296,11.4 C2.056,11.4 1.856,11.2 1.856,10.96 L1.856,8 C1.856,7.752 2.056,7.56 2.296,7.56 L13.712,7.56 C13.96,7.56 14.152,7.76 14.152,8 L14.152,10.96 C14.152,11.2 13.952,11.4 13.712,11.4 Z" id="路径" fill="#FFFFFF"></path>
                    <path d="M7.984,11.4 C7.736,11.4 7.544,11.2 7.544,10.96 L7.544,5.04 C7.544,4.792 7.744,4.6 7.984,4.6 C8.232,4.6 8.424,4.8 8.424,5.04 L8.424,10.96 C8.424,11.2 8.224,11.4 7.984,11.4 Z" id="路径" fill="#FFFFFF"></path>
                </g>
            </g>
        </g>
    </g>
</svg>