<?xml version="1.0" encoding="UTF-8"?>
<svg width="16px" height="16px" viewBox="0 0 16 16" version="1.1" xmlns="http://www.w3.org/2000/svg" xmlns:xlink="http://www.w3.org/1999/xlink">
    <!-- Generator: Sketch 52.4 (67378) - http://www.bohemiancoding.com/sketch -->
    <title>首页</title>
    <desc>Created with Sketch.</desc>
    <g id="页面-1" stroke="none" stroke-width="1" fill="none" fill-rule="evenodd">
        <g id="切图" transform="translate(-38.000000, -33.000000)">
            <g id="首页" transform="translate(38.000000, 33.000000)">
                <g id="分组">
                    <rect id="矩形" fill="#000000" opacity="0" x="0" y="0" width="16" height="16"></rect>
                    <path d="M11.7044366,16 L9.3006807,16 C9.0377699,16 8.84997647,15.7746479 8.84997647,15.5492958 L8.84997647,10.5164319 L8.84997647,10.3661972 L6.97204221,10.3661972 L6.97204221,15.5492958 C6.97204221,15.8122066 6.7466901,16 6.52133799,16 L4.1175821,16 C2.87814549,16 1.86406098,14.8732394 1.86406098,13.5211268 L1.86406098,9.38967136 L1.48847413,9.38967136 C0.849976471,9.38967136 0.324154887,9.08920187 0.0988027738,8.5258216 C-0.0889906593,8.07511738 -0.0514319621,7.36150236 0.587065679,6.64788732 L6.25842718,0.713615018 C6.7091314,0.262910792 7.31007036,0 7.91100934,0 C8.549507,0 9.15044596,0.262910792 9.56359151,0.713615018 L15.234953,6.685446 C15.9110093,7.39906102 15.948568,8.11267606 15.7232159,8.56338028 C15.4978638,9.12676056 14.9720422,9.42723005 14.3335446,9.42723005 L13.9579577,9.42723005 L13.9579577,13.5586854 C13.9579577,14.9107981 12.9814319,16 11.7044366,16 Z M9.78894362,15.0610329 L11.7419953,15.0610329 C12.5682863,15.0610329 13.0565493,14.2723005 13.0565493,13.5211268 L13.0565493,8.93896713 C13.0565493,8.67605634 13.2819014,8.4882629 13.5072535,8.4882629 L14.3335446,8.4882629 C14.5964553,8.4882629 14.7842488,8.37558685 14.8593662,8.18779343 C14.8593662,8.15023475 15.0096009,7.81220658 14.521338,7.32394366 L8.88753517,1.35211268 C8.36171357,0.788732394 7.46030512,0.788732394 6.93448351,1.35211268 L1.26312202,7.32394366 C0.812417791,7.81220657 0.925093848,8.15023474 0.925093848,8.18779343 C1.00021122,8.41314555 1.18800464,8.48826292 1.45091545,8.4882629 L2.27720652,8.4882629 C2.54011732,8.4882629 2.72791075,8.71361502 2.72791075,8.93896713 L2.72791075,13.5211268 C2.72791075,14.2723005 3.21617365,15.0610329 4.04246475,15.0610329 L6.03307506,15.0610329 L6.03307506,10.5164319 C6.03307506,10.2159624 6.03307506,9.87793426 6.25842718,9.65258217 C6.48377929,9.42723005 6.82180746,9.42723005 6.93448351,9.42723005 L8.84997647,9.42723005 C8.96265253,9.42723005 9.3006807,9.42723005 9.52603281,9.65258217 C9.75138492,9.87793428 9.75138492,10.2159624 9.75138492,10.5164319 L9.75138492,15.0610329 L9.78894362,15.0610329 Z" id="形状" fill="#FFFFFF" fill-rule="nonzero"></path>
                </g>
            </g>
        </g>
    </g>
</svg>