<?xml version="1.0" encoding="UTF-8"?>
<svg width="18px" height="18px" viewBox="0 0 18 18" version="1.1" xmlns="http://www.w3.org/2000/svg" xmlns:xlink="http://www.w3.org/1999/xlink">
    <!-- Generator: Sketch 52.4 (67378) - http://www.bohemiancoding.com/sketch -->
    <title>icon_Monitor</title>
    <desc>Created with Sketch.</desc>
    <g id="页面-1" stroke="none" stroke-width="1" fill="none" fill-rule="evenodd">
        <g id="切图" transform="translate(-445.000000, -149.000000)">
            <g id="2.-Icon-/-2.-Icon-Box-/-16-Size--/-ic_feather-pen-Copy-3" transform="translate(447.000000, 150.000000)">
                <g id="体验监控">
                    <g id="分组">
                        <rect id="矩形" fill="#000000" opacity="0" x="0" y="0" width="16" height="16"></rect>
                        <path d="M13.6951504,2.00509375 L1.28277739,2.00509375 C1.03297952,2.00509375 0.831984375,2.20610343 0.831984375,2.45588676 L0.831984375,10.5761342 C0.831984375,10.8259611 1.03293592,11.0270289 1.28277739,11.0270289 L3.17621559,11.0270289 C3.31333701,11.0270289 3.44109899,10.96503 3.52749929,10.8598382 L6.05009735,7.73235082 L7.20152484,8.6828413 C7.38570499,8.83491746 7.65616917,8.81609687 7.81955221,8.64147961 L10.0586497,6.22590457 C10.2764744,6.3592328 10.5319984,6.43439888 10.8062412,6.43439888 C11.6008042,6.43439888 12.2487701,5.7882351 12.2487701,4.99176823 C12.2487701,4.19537402 11.6026209,3.54923931 10.8062412,3.54923931 C10.0115765,3.54923931 9.36361057,4.19538855 9.36361057,4.99176823 C9.36361057,5.18336034 9.40123721,5.36745329 9.47066264,5.53465858 L7.44773299,7.71540503 L6.27374986,6.74623929 C6.18168159,6.66921295 6.06141877,6.63353377 5.94128674,6.64481159 C5.82100939,6.65607487 5.71208252,6.71616995 5.63502712,6.81009848 L2.96206783,10.1254138 L1.73358493,10.1254138 L1.73358493,2.90682511 L13.242468,2.90682511 L13.242468,10.1253993 L7.02506186,10.1253993 C6.77523492,10.1253993 6.57416711,10.326409 6.57416711,10.5761923 L6.57416711,12.7870372 L3.92572546,12.7870372 C3.67589853,12.7870372 3.47483072,12.9880904 3.47483072,13.2378302 C3.47488885,13.4876571 3.67584039,13.6887394 3.92572546,13.6887394 L9.98718964,13.6887394 C10.2370166,13.6887394 10.4380844,13.4876862 10.4380844,13.2378302 C10.4380117,12.988105 10.2370747,12.7870372 9.98718964,12.7870372 L7.47585487,12.7870372 L7.47585487,11.0269563 L13.6932465,11.0269563 C13.9430444,11.0269563 14.1441413,10.8260338 14.1441413,10.5761632 L14.1441413,2.45591583 C14.1459579,2.20611796 13.943088,2.00513735 13.6951649,2.00513735 L13.6951504,2.00509375 Z M10.8062122,4.44892147 C11.1048563,4.44892147 11.3471696,4.69123471 11.3471696,4.9898789 C11.3471696,5.2885231 11.1048563,5.53083633 10.8062122,5.53083633 C10.5074662,5.53083633 10.2652547,5.2885231 10.2652547,4.9898789 C10.2652693,4.69123471 10.5074953,4.44892147 10.8062122,4.44892147 Z" id="形状" fill="#FFFFFF" fill-rule="nonzero"></path>
                    </g>
                </g>
            </g>
        </g>
    </g>
</svg>