<?xml version="1.0" encoding="UTF-8"?>
<svg width="16px" height="16px" viewBox="0 0 16 16" version="1.1" xmlns="http://www.w3.org/2000/svg" xmlns:xlink="http://www.w3.org/1999/xlink">
    <!-- Generator: Sketch 52.4 (67378) - http://www.bohemiancoding.com/sketch -->
    <title>信息发布</title>
    <desc>Created with Sketch.</desc>
    <g id="页面-1" stroke="none" stroke-width="1" fill="none" fill-rule="evenodd">
        <g id="切图" transform="translate(-38.000000, -95.000000)">
            <g id="信息发布" transform="translate(38.000000, 95.000000)">
                <g id="分组">
                    <rect id="矩形" fill="#000000" opacity="0" x="0" y="0" width="16" height="16"></rect>
                    <path d="M13.208,8.336 C12.8766292,8.336 12.608,8.60462915 12.608,8.936 L12.608,14.2 L1.928,14.2 L1.928,1.928 L8.248,1.928 C8.57937085,1.928 8.848,1.65937085 8.848,1.328 C8.848,0.99662915 8.57937085,0.728 8.248,0.728 L1.328,0.728 C0.99662915,0.728 0.728,0.99662915 0.728,1.328 L0.728,14.8 C0.728,15.1313708 0.99662915,15.4 1.328,15.4 L13.208,15.4 C13.5393708,15.4 13.808,15.1313708 13.808,14.8 L13.808,8.936 C13.808,8.60462915 13.5393708,8.336 13.208,8.336 Z" id="路径" fill="#FFFFFF"></path>
                    <path d="M14.848,2.712 L13.16,1.024 C12.610977,0.478932906 11.725023,0.478932906 11.176,1.024 L5.904,6.264 C5.78946629,6.37836651 5.72599672,6.53415546 5.728,6.696 L5.728,9.616 C5.73237695,9.94424245 5.99972837,10.2080292 6.328,10.208 L6.4,10.208 L9.232,10.144 C9.37145698,10.1301121 9.50165274,10.0678446 9.6,9.968 L14.88,4.704 C15.1379785,4.44818385 15.2821435,4.09930458 15.28,3.736 C15.2797308,3.35042728 15.1239861,2.98125467 14.848,2.712 Z M14.048,3.848 L8.952,8.944 L6.968,8.984 L6.968,6.928 L12,1.848 C12.0819938,1.77466253 12.2060062,1.77466253 12.288,1.848 L14,3.568 C14.0472092,3.61425081 14.0732566,3.6779223 14.072,3.744 C14.072769,3.78496174 14.0585436,3.82479277 14.032,3.856 L14.048,3.848 Z M4.176,12.92 L10.496,12.92 C10.8273708,12.92 11.096,12.6513708 11.096,12.32 C11.096,11.9886292 10.8273708,11.72 10.496,11.72 L4.176,11.72 C3.84462915,11.72 3.576,11.9886292 3.576,12.32 C3.576,12.6513708 3.84462915,12.92 4.176,12.92 Z" id="形状" fill="#FFFFFF" fill-rule="nonzero"></path>
                </g>
            </g>
        </g>
    </g>
</svg>