<?xml version="1.0" encoding="UTF-8"?>
<svg width="16px" height="16px" viewBox="0 0 16 16" version="1.1" xmlns="http://www.w3.org/2000/svg" xmlns:xlink="http://www.w3.org/1999/xlink">
    <!-- Generator: Sketch 52.4 (67378) - http://www.bohemiancoding.com/sketch -->
    <title>维保</title>
    <desc>Created with Sketch.</desc>
    <g id="页面-1" stroke="none" stroke-width="1" fill="none" fill-rule="evenodd">
        <g id="切图" transform="translate(-38.000000, -126.000000)">
            <g id="维保" transform="translate(38.000000, 126.000000)">
                <g id="分组">
                    <rect id="矩形" fill="#000000" opacity="0" x="0" y="0" width="16" height="16"></rect>
                    <path d="M8.13636363,1.15365907 L2.15,2.48396211 L2.15,12.5026486 L8.13636363,15.8284062 L14.1227273,12.5026486 L14.1227273,2.48396211 L8.13636363,1.15365907 Z M12.7092607,11.7606409 L8.20926066,14.2629137 L8.0634666,14.2629137 L3.56346659,11.7606409 L3.48636362,11.6295455 L3.48636362,3.67954545 L3.60375359,3.53313306 L8.16897366,2.53086035 L12.6689737,3.53313306 L12.7863636,3.67954545 L12.7863636,11.6295455 L12.7092607,11.7606409 Z" id="形状" stroke="#2D2E4F" stroke-width="0.3" fill="#FFFFFF" fill-rule="nonzero"></path>
                    <path d="M7.31750591,6.56313145 L7.30351338,4.64615384 C6.57590144,4.99596728 6.07916636,5.74456802 6.08616263,6.61210533 C6.0931589,7.2207807 6.33802831,7.77348594 6.74381189,8.17227325 C6.97468876,8.40315012 7.24754324,8.5850531 7.56937159,8.69699339 L7.56937159,11.4675158 C7.56937159,11.6494188 7.68131188,11.8313218 7.80024846,11.9502583 C7.91918503,12.0691949 8.08709547,12.1461538 8.26899845,12.1461538 C8.63280442,12.1461538 8.97562159,11.8243255 8.96862533,11.4675158 L8.97562159,8.74596727 C9.89912905,8.49410159 10.5008082,7.6475531 10.4938119,6.64009041 C10.4868156,6.03141505 10.2419462,5.47870981 9.83616264,5.07992251 C9.66125592,4.90501579 9.4653604,4.76509042 9.24847607,4.65315011 L9.2624686,6.57012772 L8.29698353,7.12283296 L7.31750591,6.56313145 Z" id="路径" fill="#FFFFFF"></path>
                </g>
            </g>
        </g>
    </g>
</svg>