<?xml version="1.0" encoding="UTF-8"?>
<svg width="129px" height="94px" viewBox="0 0 129 94" version="1.1" xmlns="http://www.w3.org/2000/svg" xmlns:xlink="http://www.w3.org/1999/xlink">
    <!-- Generator: Sketch 52.4 (67378) - http://www.bohemiancoding.com/sketch -->
    <title>分组 8</title>
    <desc>Created with Sketch.</desc>
    <defs>
        <linearGradient x1="50%" y1="-24.3377641%" x2="50%" y2="100%" id="linearGradient-1">
            <stop stop-color="#FFFFFF" offset="0%"></stop>
            <stop stop-color="#666EE8" offset="100%"></stop>
        </linearGradient>
        <linearGradient x1="50%" y1="10.1377852%" x2="50%" y2="100%" id="linearGradient-2">
            <stop stop-color="#FFFFFF" stop-opacity="0" offset="0%"></stop>
            <stop stop-color="#666EE8" offset="100%"></stop>
        </linearGradient>
    </defs>
    <g id="页面-1" stroke="none" stroke-width="1" fill="none" fill-rule="evenodd">
        <g id="Desktop-HD-Copy-75" transform="translate(-1154.000000, -241.000000)">
            <g id="分组-8" transform="translate(1153.000000, 239.000000)">
                <g id="分组-5-copy" transform="translate(0.000000, 22.000000)">
                    <ellipse id="椭圆形" fill="url(#linearGradient-1)" opacity="0.186755952" cx="65.5" cy="56.5" rx="55.5" ry="17.5"></ellipse>
                    <path d="M0,0 L131,0 C124.333333,37.9216747 121,56.882512 121,56.882512 C121,64.7270472 100,73.4779258 67,74 C35,74 10.6821758,66.0238274 10,56.882512 C10,56.882512 6.66666667,37.9216747 0,0 Z" id="矩形" fill="url(#linearGradient-2)" opacity="0.548828125"></path>
                </g>
                <g id="蓝牙" transform="translate(39.000000, 0.000000)">
                    <g id="分组">
                        <rect id="矩形" fill="#000000" opacity="0" x="0" y="0" width="49" height="49"></rect>
                        <path d="M36.505,46.727625 L12.3725,46.727625 C6.890625,46.727625 2.45,42.287 2.45,36.805125 L2.45,12.6665 C2.45,7.184625 6.890625,2.744 12.3725,2.744 L36.505,2.744 C41.986875,2.744 46.4275,7.184625 46.4275,12.6665 L46.4275,36.805125 C46.4275,42.287 41.986875,46.727625 36.505,46.727625 Z" id="路径" fill="#666EE8"></path>
                        <path d="M32.13175,18.424 L24.542875,10.945375 C23.9365,10.345125 22.9075,10.78 22.9075,11.631375 L22.9075,21.014875 L18.11775,16.519125 C18.050375,16.45175 17.940125,16.457875 17.87275,16.52525 L16.506875,17.976875 C16.4395,18.04425 16.445625,18.1545 16.513,18.221875 L22.9075,24.224375 L22.9075,25.12475 L16.519125,31.066 C16.45175,31.133375 16.445625,31.243625 16.513,31.311 L17.87275,32.76875 C17.940125,32.836125 18.050375,32.84225 18.11775,32.774875 L22.913625,28.315875 L22.913625,37.834125 C22.913625,38.6855 23.942625,39.120375 24.549,38.520125 L32.13175,31.05375 C32.5115,30.680125 32.5115,30.0615 32.13175,29.68175 L27.8075,25.424875 C27.42775,25.05125 27.42775,24.432625 27.8075,24.052875 L32.13175,19.789875 C32.517625,19.41625 32.517625,18.797625 32.13175,18.424 Z M25.24725,14.926625 L29.43675,19.054875 L25.27175,22.925875 L25.24725,22.901375 L25.24725,14.926625 Z M25.24725,26.57025 L25.326875,26.49675 L29.4735,30.386125 L25.253375,34.545 L25.253375,26.57025 L25.24725,26.57025 Z" id="形状" fill="#FFFFFF" fill-rule="nonzero"></path>
                    </g>
                </g>
            </g>
        </g>
    </g>
</svg>