<?xml version="1.0" encoding="UTF-8"?>
<svg width="129px" height="88px" viewBox="0 0 129 88" version="1.1" xmlns="http://www.w3.org/2000/svg" xmlns:xlink="http://www.w3.org/1999/xlink">
    <!-- Generator: Sketch 52.4 (67378) - http://www.bohemiancoding.com/sketch -->
    <title>分组 9</title>
    <desc>Created with Sketch.</desc>
    <defs>
        <linearGradient x1="50%" y1="-24.3377641%" x2="50%" y2="100%" id="linearGradient-1">
            <stop stop-color="#FFFFFF" offset="0%"></stop>
            <stop stop-color="#666EE8" offset="100%"></stop>
        </linearGradient>
        <linearGradient x1="50%" y1="10.1377852%" x2="50%" y2="100%" id="linearGradient-2">
            <stop stop-color="#FFFFFF" stop-opacity="0" offset="0%"></stop>
            <stop stop-color="#666EE8" offset="100%"></stop>
        </linearGradient>
    </defs>
    <g id="页面-1" stroke="none" stroke-width="1" fill="none" fill-rule="evenodd">
        <g id="Desktop-HD-Copy-75" transform="translate(-378.000000, -247.000000)">
            <g id="分组-9" transform="translate(377.000000, 245.000000)">
                <g id="分组-6" transform="translate(0.000000, 16.000000)">
                    <g id="分组-5">
                        <ellipse id="椭圆形" fill="url(#linearGradient-1)" opacity="0.186755952" cx="65.5" cy="56.5" rx="55.5" ry="17.5"></ellipse>
                        <path d="M0,0 L131,0 C124.333333,37.9216747 121,56.882512 121,56.882512 C121,64.7270472 100,73.4779258 67,74 C35,74 10.6821758,66.0238274 10,56.882512 C10,56.882512 6.66666667,37.9216747 0,0 Z" id="矩形" fill="url(#linearGradient-2)" opacity="0.548828125"></path>
                    </g>
                </g>
                <g id="终端申请" transform="translate(37.000000, 0.000000)">
                    <g id="分组">
                        <rect id="矩形" fill="#000000" opacity="0" x="0" y="0" width="58" height="58"></rect>
                        <path d="M52.5909091,20.625 L38.1363637,20.625 L38.1363637,16.875 C38.1363637,15.8394661 37.0577769,15 35.7272727,15 C34.3967686,15 33.3181818,15.8394661 33.3181818,16.875 L33.3181818,20.625 L4.40909087,20.625 C3.07858674,20.6250001 2.00000003,21.4644661 2,22.5 L2,43.125 C2.00000003,44.1605339 3.07858674,45 4.40909087,45 L52.5909091,45 C53.9214133,45 55,44.1605339 55,43.125 L55,22.5 C55,21.4644661 53.9214133,20.6250001 52.5909091,20.625 Z M51,42 L7,42 L7,25 L51,25 L51,42 Z M29.001257,10.642432 C28.3937973,10.9455303 28.0094502,11.5418875 28.0001717,12.1957269 C27.9908933,12.8495663 28.3581772,13.4556274 28.9568136,13.7742969 C29.55545,14.0929665 30.2890653,14.0729423 30.8676163,13.7221413 C33.7609408,12.1538576 37.3060885,12.1538576 40.1994129,13.7221413 C40.6296531,13.9598753 41.1415629,14.0240306 41.6215856,13.9003758 C42.1016083,13.7767209 42.5100568,13.4754792 42.7563252,13.0634752 C43.2628333,12.2125868 42.9544139,11.1312842 42.0657722,10.642432 C38.013544,8.45252268 33.0534853,8.45252268 29.001257,10.642432 Z" id="形状" fill="#666EE8" fill-rule="nonzero"></path>
                        <rect id="矩形" fill="#666EE8" x="6" y="23" width="46" height="20"></rect>
                        <path d="M26.3412029,9.56124604 C31.9582592,5.79145877 39.2289434,5.79145877 44.8459998,9.56124604 C45.1909587,9.79821448 45.5973556,9.92432704 46.0129689,9.92337839 C46.9436301,9.94017697 47.7723319,9.32401975 48.043347,8.41374971 C48.314362,7.50347968 47.9619604,6.51986657 47.1799381,6.00382815 C40.1364103,1.31589603 31.0507924,1.31589603 24.0072645,6.00382815 C23.5479795,6.3197414 23.2305357,6.80948048 23.1249786,7.36498206 C23.0194216,7.92048364 23.1344271,8.4960907 23.4446187,8.96479273 C23.7503887,9.43773826 24.2279653,9.7665861 24.7716183,9.87853301 C25.3152713,9.99047992 25.8801523,9.87629087 26.3412029,9.56124604 Z M13.5333333,36.4433333 C12.3128834,36.9786139 11.7561092,38.4008537 12.2887849,39.6224427 C12.8214607,40.8440317 14.2425094,41.4038388 15.465232,40.8737704 C16.6879547,40.3437019 17.2507921,38.9238507 16.7233333,37.7 C16.4685953,37.1089371 15.9886056,36.6439067 15.3897761,36.4080042 C14.7909466,36.1721016 14.1227538,36.1848177 13.5333333,36.4433333 Z M23.2,36.4433333 C21.9795501,36.9786139 21.4227759,38.4008537 21.9554516,39.6224427 C22.4881274,40.8440317 23.9091761,41.4038388 25.1318987,40.8737704 C26.3546214,40.3437019 26.9174588,38.9238507 26.39,37.7 C26.135262,37.1089371 25.6552723,36.6439067 25.0564428,36.4080042 C24.4576133,36.1721016 23.7894205,36.1848177 23.2,36.4433333 Z" id="形状" fill="#666EE8" fill-rule="nonzero"></path>
                        <rect id="矩形" fill="#FFFFFF" x="25" y="30" width="1.5" height="7" rx="0.75"></rect>
                        <rect id="矩形-copy" fill="#FFFFFF" x="28" y="30" width="1.5" height="7" rx="0.75"></rect>
                        <rect id="矩形-copy-3" fill="#FFFFFF" x="34" y="30" width="1.5" height="7" rx="0.75"></rect>
                        <rect id="矩形-copy-2" fill="#FFFFFF" x="31" y="30" width="1.5" height="7" rx="0.75"></rect>
                        <rect id="矩形-copy-4" fill="#FFFFFF" x="37" y="30" width="1.5" height="7" rx="0.75"></rect>
                    </g>
                </g>
                <circle id="椭圆形" fill="#FFFFFF" cx="44.5" cy="31.5" r="1.5"></circle>
                <circle id="椭圆形-copy" fill="#FFFFFF" cx="50.5" cy="31.5" r="1.5"></circle>
            </g>
        </g>
    </g>
</svg>